<svg width="64" height="53" viewBox="0 0 64 53" fill="none" xmlns="http://www.w3.org/2000/svg">
<path d="M3.2 53C1.4336 53 0 51.0213 0 48.5834C0 46.1454 1.4336 44.1667 3.2 44.1667H60.8C62.5664 44.1667 64 46.1454 64 48.5834C64 51.0213 62.5664 53 60.8 53H3.2ZM3.2 30.9165C1.4336 30.9165 0 28.9379 0 26.4999C0 24.0619 1.4336 22.0832 3.2 22.0832H60.8C62.5664 22.0832 64 24.0619 64 26.4999C64 28.9379 62.5664 30.9165 60.8 30.9165H3.2ZM3.2 8.8333C1.4336 8.8333 0 6.85464 0 4.41665C0 1.97866 1.4336 0 3.2 0H60.8C62.5664 0 64 1.97866 64 4.41665C64 6.85464 62.5664 8.8333 60.8 8.8333H3.2Z" fill="white"/>
</svg>